<?xml version="1.0" encoding="UTF-8"?>
<svg version="1.1" xmlns="http://www.w3.org/2000/svg" width="256" height="256">
<path d="M0 0 C1.35351485 1.31284162 2.69459709 2.63930944 4 4 C2.50393415 9.24806447 -0.8654349 12.33299176 -4.6171875 16.0859375 C-5.27075226 16.74711578 -5.92431702 17.40829407 -6.59768677 18.08950806 C-7.97742943 19.48003012 -9.36114031 20.86662454 -10.74853516 22.24951172 C-12.8746887 24.37468884 -14.97859523 26.52033258 -17.08203125 28.66796875 C-18.42578158 30.01692299 -19.77079133 31.36462408 -21.1171875 32.7109375 C-21.74648163 33.35662689 -22.37577576 34.00231628 -23.0241394 34.66757202 C-23.61800446 35.25213165 -24.21186951 35.83669128 -24.82373047 36.43896484 C-25.60077835 37.21909439 -25.60077835 37.21909439 -26.39352417 38.01498413 C-28 39 -28 39 -30.07962036 38.74868774 C-32.47617607 37.81435588 -33.99711792 36.49962684 -35.9375 34.8125 C-49.43128289 24.07480022 -66.08228665 20.75474245 -83 22 C-96.72245657 23.56390008 -110.67011871 29.7076177 -121 39 C-121.73476562 39.65484375 -122.46953125 40.3096875 -123.2265625 40.984375 C-132.23004405 49.47595292 -137.88026012 59.39531146 -142 71 C-142.32097656 71.89847656 -142.64195312 72.79695313 -142.97265625 73.72265625 C-148.2455663 91.16004716 -145.65413602 110.69813408 -137.4375 126.75 C-133.37984276 134.1869325 -128.03213859 140.11431697 -122 146 C-121.42894531 146.59167969 -120.85789062 147.18335938 -120.26953125 147.79296875 C-107.97613465 159.58072436 -89.94104368 164.6574762 -73.29663086 164.4050293 C-57.23279767 163.76454324 -42.61121451 159.10217707 -30 149 C-29.37480469 148.50113281 -28.74960938 148.00226563 -28.10546875 147.48828125 C-19.45015711 139.73171529 -15.25363785 128.84545952 -12 118 C-33.12 118 -54.24 118 -76 118 C-76 102.16 -76 86.32 -76 70 C-38.71 70 -1.42 70 37 70 C38.47687783 78.86126696 39.35638356 86.27752041 39.3125 95.0625 C39.30512817 96.82750854 39.30512817 96.82750854 39.29760742 98.62817383 C38.85482096 131.9506931 27.269989 160.65887392 3.6640625 184.34375 C-10.60889386 197.83146281 -28.25341564 205.17847765 -47 210 C-47.90878906 210.2371875 -48.81757813 210.474375 -49.75390625 210.71875 C-80.71673896 217.47789165 -114.86411836 210.90206804 -141.41796875 193.890625 C-144.05790834 192.02889045 -146.54068658 190.09329521 -149 188 C-149.83273438 187.29230469 -150.66546875 186.58460938 -151.5234375 185.85546875 C-154.0676254 183.62049753 -156.54026603 181.32740651 -159 179 C-159.8353125 178.22914063 -160.670625 177.45828125 -161.53125 176.6640625 C-182.24330428 156.91089962 -194.25401438 128.20442674 -195.28125 99.75 C-195.986243 66.09948042 -186.20941637 35.37266497 -162.6484375 10.74609375 C-161.77445313 9.83988281 -160.90046875 8.93367188 -160 8 C-159.33226562 7.26910156 -158.66453125 6.53820313 -157.9765625 5.78515625 C-138.89934314 -14.53972936 -109.05739773 -25.49134118 -81.77734375 -26.93359375 C-51.46006102 -27.46657597 -23.6752693 -19.55468808 0 0 Z " fill="#37A956" transform="translate(206,35)"/>
<path d="M0 0 C1.35351485 1.31284162 2.69459709 2.63930944 4 4 C2.50393415 9.24806447 -0.8654349 12.33299176 -4.6171875 16.0859375 C-5.27075226 16.74711578 -5.92431702 17.40829407 -6.59768677 18.08950806 C-7.97742943 19.48003012 -9.36114031 20.86662454 -10.74853516 22.24951172 C-12.8746887 24.37468884 -14.97859523 26.52033258 -17.08203125 28.66796875 C-18.42578158 30.01692299 -19.77079133 31.36462408 -21.1171875 32.7109375 C-21.74648163 33.35662689 -22.37577576 34.00231628 -23.0241394 34.66757202 C-23.61800446 35.25213165 -24.21186951 35.83669128 -24.82373047 36.43896484 C-25.60077835 37.21909439 -25.60077835 37.21909439 -26.39352417 38.01498413 C-28 39 -28 39 -30.07962036 38.74868774 C-32.47617607 37.81435588 -33.99711792 36.49962684 -35.9375 34.8125 C-49.43128289 24.07480022 -66.08228665 20.75474245 -83 22 C-96.72245657 23.56390008 -110.67011871 29.7076177 -121 39 C-121.73476562 39.65484375 -122.46953125 40.3096875 -123.2265625 40.984375 C-132.23004405 49.47595292 -137.88026012 59.39531146 -142 71 C-142.32097656 71.89847656 -142.64195312 72.79695313 -142.97265625 73.72265625 C-147.06881774 87.26856704 -146.11214494 102.58657483 -142 116 C-142.98097656 116.72703125 -143.96195313 117.4540625 -144.97265625 118.203125 C-153.9153415 124.85625052 -162.68426917 131.68684718 -171.359375 138.68408203 C-174.8711729 141.5008366 -178.43252884 144.25430404 -182 147 C-184.92283729 143.57262533 -186.45851688 139.80161634 -188 135.625 C-188.26127686 134.9225415 -188.52255371 134.22008301 -188.79174805 133.49633789 C-191.21007439 126.78312432 -192.79949659 120.03892286 -194 113 C-194.27650391 111.45119141 -194.27650391 111.45119141 -194.55859375 109.87109375 C-198.22664828 77.70258013 -190.79712986 45.88043975 -171 20 C-167.5108101 15.83034568 -163.77274298 11.91185592 -160 8 C-159.33226562 7.26910156 -158.66453125 6.53820313 -157.9765625 5.78515625 C-138.89934314 -14.53972936 -109.05739773 -25.49134118 -81.77734375 -26.93359375 C-51.46006102 -27.46657597 -23.6752693 -19.55468808 0 0 Z " fill="#EA4538" transform="translate(206,35)"/>
<path d="M0 0 C37.29 0 74.58 0 113 0 C114.47687783 8.86126696 115.35638356 16.27752041 115.3125 25.0625 C115.30512817 26.82750854 115.30512817 26.82750854 115.29760742 28.62817383 C114.87798827 60.20720502 104.47878016 89.34387246 82 112 C81.01 112.66 80.02 113.32 79 114 C78.28457031 113.39414063 77.56914062 112.78828125 76.83203125 112.1640625 C69.92145435 106.35309874 62.88517364 100.7580703 55.69824219 95.29394531 C52.68604186 92.99885306 49.68771902 90.68571744 46.6875 88.375 C45.58729743 87.52857064 44.48704259 86.68220921 43.38671875 85.8359375 C42.59910156 85.23007813 41.81148437 84.62421875 41 84 C45.61155726 79.34130587 45.61155726 79.34130587 47.73828125 77.47265625 C56.52611573 69.60067549 60.67894477 59.0701841 64 48 C42.88 48 21.76 48 0 48 C0 32.16 0 16.32 0 0 Z " fill="#4587F4" transform="translate(130,105)"/>
<path d="M0 0 C6.37005639 3.9359698 12.16440608 8.4595177 17.96557617 13.17041016 C23.52075694 17.66484802 29.21542971 21.95094297 34.98461914 26.16650391 C39.89448541 29.78897083 39.89448541 29.78897083 41 32 C40.56780276 33.6381182 40.07693469 35.26081827 39.5625 36.875 C36.14296859 49.97007191 37.05570172 64.13407466 41 77 C40.01902344 77.72703125 39.03804687 78.4540625 38.02734375 79.203125 C29.0846585 85.85625052 20.31573083 92.68684718 11.640625 99.68408203 C8.1288271 102.5008366 4.56747116 105.25430404 1 108 C-1.92283729 104.57262533 -3.45851688 100.80161634 -5 96.625 C-5.26127686 95.9225415 -5.52255371 95.22008301 -5.79174805 94.49633789 C-8.21007439 87.78312432 -9.79949659 81.03892286 -11 74 C-11.18433594 72.96746094 -11.36867188 71.93492187 -11.55859375 70.87109375 C-14.39335184 46.01051617 -10.68402668 22.55516744 0 0 Z " fill="#FABD09" transform="translate(23,74)"/>
</svg>
